# Blender v3.1.2 OBJ File: ''
# www.blender.org
mtllib composed-cube.mtl
o Cube
v 1.000000 1.000000 -1.000000
v 1.000000 -1.000000 -1.000000
v 1.000000 1.000000 1.000000
v 1.000000 -1.000000 1.000000
v -1.000000 1.000000 -1.000000
v -1.000000 -1.000000 -1.000000
v -1.000000 1.000000 1.000000
v -1.000000 -1.000000 1.000000
vt 0.375000 0.000000
vt 0.625000 0.000000
vt 0.625000 0.250000
vt 0.375000 0.250000
vt 0.375000 0.500000
vt 0.625000 0.500000
vt 0.625000 0.750000
vt 0.375000 0.750000
vt 0.625000 1.000000
vt 0.375000 1.000000
vt 0.875000 0.500000
vt 0.875000 0.750000
vt 0.125000 0.500000
vt 0.125000 0.750000
vn -1.0000 0.0000 0.0000
vn 1.0000 0.0000 0.0000
vn 0.0000 0.0000 1.0000
vn 0.0000 0.0000 -1.0000
vn 0.0000 1.0000 0.0000
vn 0.0000 -1.0000 0.0000
usemtl Red
s off
f 8/1/1 7/2/1 5/3/1 6/4/1
f 2/5/2 1/6/2 3/7/2 4/8/2
usemtl Green
f 4/8/3 3/7/3 7/9/3 8/10/3
f 6/4/4 5/3/4 1/6/4 2/5/4
usemtl Blue
f 1/6/5 5/11/5 7/12/5 3/7/5
f 6/13/6 2/5/6 4/8/6 8/14/6
